<mxfile host="65bd71144e">
    <diagram name="第 1 页" id="f2GakVHI_LAMkfZst77-">
        <mxGraphModel dx="585" dy="406" grid="1" gridSize="10" guides="1" tooltips="1" connect="1" arrows="1" fold="1" page="1" pageScale="1" pageWidth="1169" pageHeight="827" math="0" shadow="0">
            <root>
                <mxCell id="0"/>
                <mxCell id="1" parent="0"/>
                <mxCell id="91" value="虚拟机运行环境" style="fontStyle=0;verticalAlign=top;align=center;spacingTop=-2;fillColor=none;rounded=0;whiteSpace=wrap;html=1;strokeColor=#4376BB;strokeWidth=1;dashed=0;container=1;collapsible=0;expand=0;recursiveResize=0;fontSize=12;fontColor=default;" vertex="1" parent="1">
                    <mxGeometry x="450" y="60" width="410" height="110" as="geometry"/>
                </mxCell>
                <mxCell id="85" value="VM" style="aspect=fixed;perimeter=ellipsePerimeter;html=1;align=center;shadow=0;dashed=0;fontColor=#4277BB;labelBackgroundColor=#ffffff;fontSize=12;spacingTop=3;image;image=img/lib/ibm/vpc/BareMetalServer.svg;" vertex="1" parent="91">
                    <mxGeometry x="29.999999999999943" y="25" width="60" height="60" as="geometry"/>
                </mxCell>
                <mxCell id="86" value="VM" style="aspect=fixed;perimeter=ellipsePerimeter;html=1;align=center;shadow=0;dashed=0;fontColor=#4277BB;labelBackgroundColor=#ffffff;fontSize=12;spacingTop=3;image;image=img/lib/ibm/vpc/BareMetalServer.svg;" vertex="1" parent="91">
                    <mxGeometry x="113.32999999999993" y="25" width="60" height="60" as="geometry"/>
                </mxCell>
                <mxCell id="87" value="VM" style="aspect=fixed;perimeter=ellipsePerimeter;html=1;align=center;shadow=0;dashed=0;fontColor=#4277BB;labelBackgroundColor=#ffffff;fontSize=12;spacingTop=3;image;image=img/lib/ibm/vpc/BareMetalServer.svg;" vertex="1" parent="91">
                    <mxGeometry x="320" y="25" width="60" height="60" as="geometry"/>
                </mxCell>
                <mxCell id="95" value="······" style="text;html=1;strokeColor=none;fillColor=none;align=center;verticalAlign=middle;whiteSpace=wrap;rounded=0;fontSize=24;" vertex="1" parent="91">
                    <mxGeometry x="220" y="40" width="60" height="30" as="geometry"/>
                </mxCell>
                <mxCell id="89" value="Docker运行环境" style="fontStyle=0;verticalAlign=top;align=center;spacingTop=-2;fillColor=none;rounded=0;whiteSpace=wrap;html=1;strokeColor=#4376BB;strokeWidth=1;dashed=0;container=1;collapsible=0;expand=0;recursiveResize=0;fontSize=12;fontColor=default;" vertex="1" parent="1">
                    <mxGeometry x="120" y="60" width="300" height="110" as="geometry"/>
                </mxCell>
                <mxCell id="83" value="" style="sketch=0;aspect=fixed;html=1;points=[];align=center;image;fontSize=12;image=img/lib/mscae/Docker.svg;fontColor=default;" vertex="1" parent="89">
                    <mxGeometry x="20" y="20" width="85.37" height="70" as="geometry"/>
                </mxCell>
                <mxCell id="88" value="" style="sketch=0;aspect=fixed;html=1;points=[];align=center;image;fontSize=12;image=img/lib/mscae/Docker.svg;fontColor=default;" vertex="1" parent="89">
                    <mxGeometry x="190" y="20" width="85.37" height="70" as="geometry"/>
                </mxCell>
                <mxCell id="90" value="······" style="text;html=1;strokeColor=none;fillColor=none;align=center;verticalAlign=middle;whiteSpace=wrap;rounded=0;fontSize=24;" vertex="1" parent="89">
                    <mxGeometry x="120" y="40" width="60" height="30" as="geometry"/>
                </mxCell>
                <mxCell id="74" value="可观测平台" style="fontStyle=0;verticalAlign=top;align=center;spacingTop=-2;fillColor=none;rounded=0;whiteSpace=wrap;html=1;strokeColor=#919191;strokeWidth=2;dashed=1;container=1;collapsible=0;expand=0;recursiveResize=0;fontSize=12;fontColor=default;" vertex="1" parent="1">
                    <mxGeometry x="880" y="60" width="100" height="510" as="geometry"/>
                </mxCell>
                <mxCell id="49" value="日志分析" style="aspect=fixed;perimeter=ellipsePerimeter;html=1;align=center;shadow=0;dashed=0;fontColor=#4277BB;labelBackgroundColor=#ffffff;fontSize=12;spacingTop=3;image;image=img/lib/ibm/infrastructure/monitoring_logging.svg;" vertex="1" parent="74">
                    <mxGeometry x="20" y="310" width="60" height="60" as="geometry"/>
                </mxCell>
                <mxCell id="61" value="日志与指标计算" style="aspect=fixed;perimeter=ellipsePerimeter;html=1;align=center;shadow=0;dashed=0;fontColor=#4277BB;labelBackgroundColor=#ffffff;fontSize=12;spacingTop=3;image;image=img/lib/ibm/management/process_management.svg;" vertex="1" parent="74">
                    <mxGeometry x="20" y="210" width="60" height="60" as="geometry"/>
                </mxCell>
                <mxCell id="76" value="" style="group" vertex="1" connectable="0" parent="74">
                    <mxGeometry x="10" y="120" width="100" height="50" as="geometry"/>
                </mxCell>
                <mxCell id="63" value="指标收集" style="verticalLabelPosition=bottom;sketch=0;html=1;fillColor=#6ABD46;strokeColor=#ffffff;verticalAlign=top;align=center;points=[[0.085,0.085,0],[0.915,0.085,0],[0.915,0.915,0],[0.085,0.915,0],[0.25,0,0],[0.5,0,0],[0.75,0,0],[1,0.25,0],[1,0.5,0],[1,0.75,0],[0.75,1,0],[0.5,1,0],[0.25,1,0],[0,0.75,0],[0,0.5,0],[0,0.25,0]];pointerEvents=1;shape=mxgraph.cisco_safe.compositeIcon;bgIcon=mxgraph.cisco_safe.architecture.generic_appliance;resIcon=mxgraph.cisco_safe.architecture.flow_collector;fontSize=12;fontColor=default;" vertex="1" parent="76">
                    <mxGeometry width="50" height="50" as="geometry"/>
                </mxCell>
                <mxCell id="65" value="···" style="text;html=1;strokeColor=none;fillColor=none;align=center;verticalAlign=middle;whiteSpace=wrap;rounded=0;fontSize=24;" vertex="1" parent="76">
                    <mxGeometry x="40" y="10" width="60" height="30" as="geometry"/>
                </mxCell>
                <mxCell id="77" value="" style="group" vertex="1" connectable="0" parent="74">
                    <mxGeometry x="10" y="30" width="100" height="50" as="geometry"/>
                </mxCell>
                <mxCell id="62" value="日志收集" style="verticalLabelPosition=bottom;sketch=0;html=1;fillColor=#6ABD46;strokeColor=#ffffff;verticalAlign=top;align=center;points=[[0.085,0.085,0],[0.915,0.085,0],[0.915,0.915,0],[0.085,0.915,0],[0.25,0,0],[0.5,0,0],[0.75,0,0],[1,0.25,0],[1,0.5,0],[1,0.75,0],[0.75,1,0],[0.5,1,0],[0.25,1,0],[0,0.75,0],[0,0.5,0],[0,0.25,0]];pointerEvents=1;shape=mxgraph.cisco_safe.compositeIcon;bgIcon=mxgraph.cisco_safe.architecture.generic_appliance;resIcon=mxgraph.cisco_safe.architecture.log_collector;fontSize=12;fontColor=default;" vertex="1" parent="77">
                    <mxGeometry width="50" height="50" as="geometry"/>
                </mxCell>
                <mxCell id="64" value="···" style="text;html=1;strokeColor=none;fillColor=none;align=center;verticalAlign=middle;whiteSpace=wrap;rounded=0;fontSize=24;" vertex="1" parent="77">
                    <mxGeometry x="40" y="10" width="60" height="30" as="geometry"/>
                </mxCell>
                <mxCell id="35" value="OSS" style="shape=mxgraph.ibm.box;prType=zone;fontStyle=0;verticalAlign=top;align=left;spacingLeft=32;spacingTop=4;fillColor=#E0E0E0;rounded=0;whiteSpace=wrap;html=1;strokeColor=#919191;strokeWidth=1;dashed=0;container=1;spacing=-4;collapsible=0;expand=0;recursiveResize=0;fontSize=16;" vertex="1" parent="1">
                    <mxGeometry x="553.33" y="190" width="160" height="130" as="geometry"/>
                </mxCell>
                <mxCell id="29" value="Node" style="aspect=fixed;perimeter=ellipsePerimeter;html=1;align=center;shadow=0;dashed=0;fontColor=#4277BB;labelBackgroundColor=#ffffff;fontSize=12;spacingTop=3;image;image=img/lib/ibm/data/file_repository.svg;" vertex="1" parent="35">
                    <mxGeometry x="20" y="40" width="60" height="60" as="geometry"/>
                </mxCell>
                <mxCell id="36" value="······" style="text;html=1;strokeColor=none;fillColor=none;align=center;verticalAlign=middle;whiteSpace=wrap;rounded=0;fontSize=24;" vertex="1" parent="35">
                    <mxGeometry x="90" y="55" width="60" height="30" as="geometry"/>
                </mxCell>
                <mxCell id="40" value="" style="group" vertex="1" connectable="0" parent="1">
                    <mxGeometry x="120" y="350" width="330" height="220" as="geometry"/>
                </mxCell>
                <mxCell id="38" value="&lt;font style=&quot;font-size: 12px;&quot;&gt;服务网格&lt;/font&gt;" style="fontStyle=0;verticalAlign=top;align=center;spacingTop=-2;fillColor=none;rounded=0;whiteSpace=wrap;html=1;strokeColor=#FF0000;strokeWidth=2;dashed=1;container=1;collapsible=0;expand=0;recursiveResize=0;fontSize=16;fontColor=default;" vertex="1" parent="40">
                    <mxGeometry width="330" height="220" as="geometry"/>
                </mxCell>
                <mxCell id="16" value="用户服务" style="aspect=fixed;perimeter=ellipsePerimeter;html=1;align=center;shadow=0;dashed=0;fontColor=#4277BB;labelBackgroundColor=#ffffff;fontSize=12;spacingTop=3;image;image=img/lib/ibm/infrastructure/microservices_mesh.svg;" vertex="1" parent="40">
                    <mxGeometry x="20" y="30" width="60" height="60" as="geometry"/>
                </mxCell>
                <mxCell id="17" value="任务分发服务" style="aspect=fixed;perimeter=ellipsePerimeter;html=1;align=center;shadow=0;dashed=0;fontColor=#4277BB;labelBackgroundColor=#ffffff;fontSize=12;spacingTop=3;image;image=img/lib/ibm/infrastructure/microservices_mesh.svg;" vertex="1" parent="40">
                    <mxGeometry x="130" y="30" width="60" height="60" as="geometry"/>
                </mxCell>
                <mxCell id="18" value="分析统计服务" style="aspect=fixed;perimeter=ellipsePerimeter;html=1;align=center;shadow=0;dashed=0;fontColor=#4277BB;labelBackgroundColor=#ffffff;fontSize=12;spacingTop=3;image;image=img/lib/ibm/infrastructure/microservices_mesh.svg;" vertex="1" parent="40">
                    <mxGeometry x="240" y="30" width="60" height="60" as="geometry"/>
                </mxCell>
                <mxCell id="19" value="数据管理服务" style="aspect=fixed;perimeter=ellipsePerimeter;html=1;align=center;shadow=0;dashed=0;fontColor=#4277BB;labelBackgroundColor=#ffffff;fontSize=12;spacingTop=3;image;image=img/lib/ibm/infrastructure/microservices_mesh.svg;" vertex="1" parent="40">
                    <mxGeometry x="20" y="130" width="60" height="60" as="geometry"/>
                </mxCell>
                <mxCell id="20" value="质量评价服务" style="aspect=fixed;perimeter=ellipsePerimeter;html=1;align=center;shadow=0;dashed=0;fontColor=#4277BB;labelBackgroundColor=#ffffff;fontSize=12;spacingTop=3;image;image=img/lib/ibm/infrastructure/microservices_mesh.svg;" vertex="1" parent="40">
                    <mxGeometry x="130" y="130" width="60" height="60" as="geometry"/>
                </mxCell>
                <mxCell id="21" value="数据集流转服务" style="aspect=fixed;perimeter=ellipsePerimeter;html=1;align=center;shadow=0;dashed=0;fontColor=#4277BB;labelBackgroundColor=#ffffff;fontSize=12;spacingTop=3;image;image=img/lib/ibm/infrastructure/microservices_mesh.svg;" vertex="1" parent="40">
                    <mxGeometry x="240" y="130" width="60" height="60" as="geometry"/>
                </mxCell>
                <mxCell id="42" value="消息队列" style="sketch=0;outlineConnect=0;fontColor=#232F3E;gradientColor=none;fillColor=#B0084D;strokeColor=none;dashed=0;verticalLabelPosition=bottom;verticalAlign=top;align=center;html=1;fontSize=12;fontStyle=0;aspect=fixed;pointerEvents=1;shape=mxgraph.aws4.mq_broker;" vertex="1" parent="1">
                    <mxGeometry x="490" y="470" width="60" height="60" as="geometry"/>
                </mxCell>
                <mxCell id="43" value="&lt;p style=&quot;line-height: 100%; font-size: 12px;&quot;&gt;分布式锁&lt;/p&gt;" style="sketch=0;points=[[0.5,0,0],[1,0.5,0],[0.5,1,0],[0,0.5,0],[0.145,0.145,0],[0.8555,0.145,0],[0.855,0.8555,0],[0.145,0.855,0]];verticalLabelPosition=bottom;html=1;verticalAlign=top;aspect=fixed;align=center;pointerEvents=1;shape=mxgraph.cisco19.lock;fillColor=#005073;strokeColor=none;fontSize=16;fontColor=default;" vertex="1" parent="1">
                    <mxGeometry x="494.5" y="380" width="51" height="51" as="geometry"/>
                </mxCell>
                <mxCell id="44" value="&lt;font style=&quot;font-size: 12px;&quot;&gt;GPU计算节点&lt;/font&gt;" style="fontStyle=0;verticalAlign=top;align=center;spacingTop=-2;fillColor=none;rounded=0;whiteSpace=wrap;html=1;strokeColor=#00882B;strokeWidth=2;dashed=1;container=1;collapsible=0;expand=0;recursiveResize=0;fontSize=16;fontColor=default;" vertex="1" parent="1">
                    <mxGeometry x="593.33" y="350" width="120" height="220" as="geometry"/>
                </mxCell>
                <mxCell id="45" value="图像嵌入计算" style="aspect=fixed;perimeter=ellipsePerimeter;html=1;align=center;shadow=0;dashed=0;fontColor=#4277BB;labelBackgroundColor=#ffffff;fontSize=12;spacingTop=3;image;image=img/lib/ibm/applications/runtime_services.svg;" vertex="1" parent="44">
                    <mxGeometry x="30" y="30" width="60" height="60" as="geometry"/>
                </mxCell>
                <mxCell id="46" value="多模态交互计算" style="aspect=fixed;perimeter=ellipsePerimeter;html=1;align=center;shadow=0;dashed=0;fontColor=#4277BB;labelBackgroundColor=#ffffff;fontSize=12;spacingTop=3;image;image=img/lib/ibm/applications/runtime_services.svg;" vertex="1" parent="44">
                    <mxGeometry x="30" y="130" width="60" height="60" as="geometry"/>
                </mxCell>
                <mxCell id="47" value="" style="group" vertex="1" connectable="0" parent="1">
                    <mxGeometry x="120" y="190" width="200" height="130" as="geometry"/>
                </mxCell>
                <mxCell id="30" value="Redis Cluster" style="shape=mxgraph.ibm.box;prType=zone;fontStyle=0;verticalAlign=top;align=left;spacingLeft=32;spacingTop=4;fillColor=#E0E0E0;rounded=0;whiteSpace=wrap;html=1;strokeColor=#919191;strokeWidth=1;dashed=0;container=0;spacing=-4;collapsible=0;expand=0;recursiveResize=0;fontSize=16;" vertex="1" parent="47">
                    <mxGeometry width="200" height="130" as="geometry"/>
                </mxCell>
                <mxCell id="26" value="Redis Node" style="aspect=fixed;perimeter=ellipsePerimeter;html=1;align=center;shadow=0;dashed=0;fontColor=#4277BB;labelBackgroundColor=#ffffff;fontSize=12;spacingTop=3;image;image=img/lib/ibm/data/caches.svg;" vertex="1" parent="47">
                    <mxGeometry x="10" y="40" width="60" height="60" as="geometry"/>
                </mxCell>
                <mxCell id="31" value="Redis Node" style="aspect=fixed;perimeter=ellipsePerimeter;html=1;align=center;shadow=0;dashed=0;fontColor=#4277BB;labelBackgroundColor=#ffffff;fontSize=12;spacingTop=3;image;image=img/lib/ibm/data/caches.svg;" vertex="1" parent="47">
                    <mxGeometry x="130" y="40" width="60" height="60" as="geometry"/>
                </mxCell>
                <mxCell id="32" value="······" style="text;html=1;strokeColor=none;fillColor=none;align=center;verticalAlign=middle;whiteSpace=wrap;rounded=0;fontSize=24;" vertex="1" parent="47">
                    <mxGeometry x="70" y="55" width="60" height="30" as="geometry"/>
                </mxCell>
                <mxCell id="48" value="" style="group" vertex="1" connectable="0" parent="1">
                    <mxGeometry x="340" y="190" width="190" height="130" as="geometry"/>
                </mxCell>
                <mxCell id="33" value="PostgreSQL" style="shape=mxgraph.ibm.box;prType=zone;fontStyle=0;verticalAlign=top;align=left;spacingLeft=32;spacingTop=4;fillColor=#E0E0E0;rounded=0;whiteSpace=wrap;html=1;strokeColor=#919191;strokeWidth=1;dashed=0;container=0;spacing=-4;collapsible=0;expand=0;recursiveResize=0;fontSize=16;" vertex="1" parent="48">
                    <mxGeometry width="190" height="130" as="geometry"/>
                </mxCell>
                <mxCell id="27" value="Master" style="aspect=fixed;perimeter=ellipsePerimeter;html=1;align=center;shadow=0;dashed=0;fontColor=#4277BB;labelBackgroundColor=#ffffff;fontSize=12;spacingTop=3;image;image=img/lib/ibm/data/data_services.svg;" vertex="1" parent="48">
                    <mxGeometry x="10" y="35" width="60" height="60" as="geometry"/>
                </mxCell>
                <mxCell id="28" value="Slave" style="aspect=fixed;perimeter=ellipsePerimeter;html=1;align=center;shadow=0;dashed=0;fontColor=#4277BB;labelBackgroundColor=#ffffff;fontSize=12;spacingTop=3;image;image=img/lib/ibm/data/data_services.svg;" vertex="1" parent="48">
                    <mxGeometry x="120" y="35" width="60" height="60" as="geometry"/>
                </mxCell>
                <mxCell id="34" value="" style="shape=flexArrow;endArrow=classic;html=1;fontSize=16;exitX=1;exitY=0.5;exitDx=0;exitDy=0;entryX=0;entryY=0.5;entryDx=0;entryDy=0;endWidth=12.631578947368421;endSize=4.052631578947369;fontColor=default;labelBackgroundColor=default;fillColor=default;width=9.473684210526317;" edge="1" parent="48" source="27" target="28">
                    <mxGeometry width="50" height="50" relative="1" as="geometry">
                        <mxPoint x="80" y="240" as="sourcePoint"/>
                        <mxPoint x="130" y="190" as="targetPoint"/>
                    </mxGeometry>
                </mxCell>
                <mxCell id="56" value="服务监控" style="aspect=fixed;perimeter=ellipsePerimeter;html=1;align=center;shadow=0;dashed=0;fontColor=#4277BB;labelBackgroundColor=#ffffff;fontSize=12;spacingTop=3;image;image=img/lib/ibm/infrastructure/monitoring.svg;" vertex="1" parent="1">
                    <mxGeometry x="900" y="470" width="60" height="60" as="geometry"/>
                </mxCell>
                <mxCell id="59" value="DevOps" style="fontStyle=0;verticalAlign=top;align=center;spacingTop=-2;fillColor=none;rounded=0;whiteSpace=wrap;html=1;strokeColor=#919191;strokeWidth=2;dashed=1;container=1;collapsible=0;expand=0;recursiveResize=0;fontSize=12;fontColor=default;" vertex="1" parent="1">
                    <mxGeometry x="730" y="190" width="130" height="380" as="geometry"/>
                </mxCell>
                <mxCell id="53" value="持续构建" style="aspect=fixed;perimeter=ellipsePerimeter;html=1;align=center;shadow=0;dashed=0;fontColor=#4277BB;labelBackgroundColor=#ffffff;fontSize=12;spacingTop=3;image;image=img/lib/ibm/devops/build_test.svg;" vertex="1" parent="59">
                    <mxGeometry x="35" y="50" width="60" height="60" as="geometry"/>
                </mxCell>
                <mxCell id="51" value="持续部署" style="aspect=fixed;perimeter=ellipsePerimeter;html=1;align=center;shadow=0;dashed=0;fontColor=#4277BB;labelBackgroundColor=#ffffff;fontSize=12;spacingTop=3;image;image=img/lib/ibm/devops/continuous_deploy.svg;" vertex="1" parent="59">
                    <mxGeometry x="35" y="160" width="60" height="60" as="geometry"/>
                </mxCell>
                <mxCell id="52" value="持续测试" style="aspect=fixed;perimeter=ellipsePerimeter;html=1;align=center;shadow=0;dashed=0;fontColor=#4277BB;labelBackgroundColor=#ffffff;fontSize=12;spacingTop=3;image;image=img/lib/ibm/devops/continuous_testing.svg;" vertex="1" parent="59">
                    <mxGeometry x="35" y="280" width="60" height="60" as="geometry"/>
                </mxCell>
                <mxCell id="3" value="Laptop" style="verticalLabelPosition=bottom;html=1;verticalAlign=top;align=center;strokeColor=none;fillColor=#00BEF2;shape=mxgraph.azure.laptop;pointerEvents=1;" parent="1" vertex="1">
                    <mxGeometry x="510" y="670" width="83.33" height="50" as="geometry"/>
                </mxCell>
                <mxCell id="4" value="PC" style="verticalLabelPosition=bottom;html=1;verticalAlign=top;align=center;strokeColor=none;fillColor=#00BEF2;shape=mxgraph.azure.computer;pointerEvents=1;" parent="1" vertex="1">
                    <mxGeometry x="646.66" y="665" width="66.67" height="60" as="geometry"/>
                </mxCell>
                <mxCell id="9" value="" style="group" parent="1" vertex="1" connectable="0">
                    <mxGeometry x="120" y="645" width="220" height="100" as="geometry"/>
                </mxCell>
                <mxCell id="5" value="SAM Decoder" style="aspect=fixed;html=1;points=[];align=center;image;fontSize=12;image=img/lib/azure2/ai_machine_learning/Machine_Learning.svg;" parent="9" vertex="1">
                    <mxGeometry x="150" y="31.629999999999995" width="44" height="46.75" as="geometry"/>
                </mxCell>
                <mxCell id="6" value="GUI Application" style="sketch=0;pointerEvents=1;shadow=0;dashed=0;html=1;strokeColor=none;fillColor=#505050;labelPosition=center;verticalLabelPosition=bottom;verticalAlign=top;outlineConnect=0;align=center;shape=mxgraph.office.concepts.application_windows;" parent="9" vertex="1">
                    <mxGeometry x="20" y="30" width="59" height="47" as="geometry"/>
                </mxCell>
                <mxCell id="7" value="" style="shape=flexArrow;endArrow=classic;startArrow=classic;html=1;entryX=-0.125;entryY=0.575;entryDx=0;entryDy=0;entryPerimeter=0;" parent="9" target="5" edge="1">
                    <mxGeometry width="100" height="100" relative="1" as="geometry">
                        <mxPoint x="90" y="60" as="sourcePoint"/>
                        <mxPoint x="140" y="60" as="targetPoint"/>
                    </mxGeometry>
                </mxCell>
                <mxCell id="8" value="Desktop APP" style="shape=mxgraph.ibm.box;prType=classic;fontStyle=0;verticalAlign=top;align=left;spacingLeft=32;spacingTop=4;fillColor=none;rounded=0;whiteSpace=wrap;html=1;strokeColor=#4376BB;strokeWidth=2;dashed=0;container=1;spacing=-4;collapsible=0;expand=0;recursiveResize=0;" parent="9" vertex="1">
                    <mxGeometry width="220" height="100" as="geometry"/>
                </mxCell>
                <mxCell id="11" value="API网关" style="sketch=0;outlineConnect=0;fontColor=#232F3E;gradientColor=none;fillColor=#4D27AA;strokeColor=none;dashed=0;verticalLabelPosition=bottom;verticalAlign=top;align=center;html=1;fontSize=12;fontStyle=0;aspect=fixed;pointerEvents=1;shape=mxgraph.aws4.gateway_load_balancer;" parent="1" vertex="1">
                    <mxGeometry x="490" y="570" width="60" height="60" as="geometry"/>
                </mxCell>
                <mxCell id="13" value="······" style="text;html=1;strokeColor=none;fillColor=none;align=center;verticalAlign=middle;whiteSpace=wrap;rounded=0;fontSize=24;" vertex="1" parent="1">
                    <mxGeometry x="400" y="680" width="60" height="30" as="geometry"/>
                </mxCell>
                <mxCell id="96" value="PC" style="verticalLabelPosition=bottom;html=1;verticalAlign=top;align=center;strokeColor=none;fillColor=#00BEF2;shape=mxgraph.azure.computer;pointerEvents=1;" vertex="1" parent="1">
                    <mxGeometry x="870" y="665" width="66.67" height="60" as="geometry"/>
                </mxCell>
                <mxCell id="97" value="······" style="text;html=1;strokeColor=none;fillColor=none;align=center;verticalAlign=middle;whiteSpace=wrap;rounded=0;fontSize=24;" vertex="1" parent="1">
                    <mxGeometry x="765" y="680" width="60" height="30" as="geometry"/>
                </mxCell>
            </root>
        </mxGraphModel>
    </diagram>
</mxfile>